<svg width="559" height="329" viewBox="0 0 559 329" fill="none" xmlns="http://www.w3.org/2000/svg">
<rect width="559" height="329" fill="#161B22"/>
<path d="M267.696 158.64V123.6H273.552V128.64H274.896L273.552 130.032C273.552 127.888 274.192 126.208 275.472 124.992C276.752 123.744 278.48 123.12 280.656 123.12C283.312 123.12 285.44 124.032 287.04 125.856C288.64 127.68 289.44 130.128 289.44 133.2V140.352C289.44 142.4 289.072 144.192 288.336 145.728C287.632 147.232 286.624 148.4 285.312 149.232C284 150.064 282.448 150.48 280.656 150.48C278.48 150.48 276.752 149.872 275.472 148.656C274.192 147.408 273.552 145.712 273.552 143.568L274.896 144.96H273.504L273.696 151.248V158.64H267.696ZM278.544 145.296C280.08 145.296 281.28 144.848 282.144 143.952C283.008 143.056 283.44 141.776 283.44 140.112V133.488C283.44 131.824 283.008 130.544 282.144 129.648C281.28 128.752 280.08 128.304 278.544 128.304C277.04 128.304 275.856 128.768 274.992 129.696C274.128 130.592 273.696 131.856 273.696 133.488V140.112C273.696 141.744 274.128 143.024 274.992 143.952C275.856 144.848 277.04 145.296 278.544 145.296ZM304.253 150.48C301.533 150.48 299.389 149.76 297.821 148.32C296.253 146.88 295.469 144.944 295.469 142.512C295.469 139.92 296.333 137.92 298.061 136.512C299.789 135.104 302.237 134.4 305.405 134.4H311.981V132.144C311.981 130.864 311.565 129.872 310.733 129.168C309.901 128.432 308.765 128.064 307.325 128.064C306.013 128.064 304.925 128.352 304.061 128.928C303.197 129.504 302.685 130.288 302.525 131.28H296.669C296.957 128.784 298.077 126.8 300.029 125.328C301.981 123.856 304.477 123.12 307.517 123.12C310.749 123.12 313.293 123.936 315.149 125.568C317.037 127.168 317.981 129.344 317.981 132.096V150H312.173V145.392H311.213L312.173 144.096C312.173 146.048 311.453 147.6 310.013 148.752C308.573 149.904 306.653 150.48 304.253 150.48ZM306.221 145.968C307.917 145.968 309.293 145.536 310.349 144.672C311.437 143.808 311.981 142.688 311.981 141.312V138.096H305.501C304.285 138.096 303.309 138.448 302.573 139.152C301.837 139.856 301.469 140.784 301.469 141.936C301.469 143.184 301.885 144.176 302.717 144.912C303.581 145.616 304.749 145.968 306.221 145.968ZM338.843 150C336.315 150 334.331 149.296 332.891 147.888C331.483 146.48 330.779 144.544 330.779 142.08V129.024H323.627V123.6H330.779V116.16H336.827V123.6H346.955V129.024H336.827V142.08C336.827 143.744 337.643 144.576 339.275 144.576H346.475V150H338.843ZM354.04 150V114.96H360.04V123.6L359.896 128.64H361.528L359.896 130.032C359.896 127.856 360.52 126.16 361.768 124.944C363.048 123.728 364.792 123.12 367 123.12C369.592 123.12 371.656 123.984 373.192 125.712C374.76 127.44 375.544 129.76 375.544 132.672V150H369.544V133.296C369.544 131.696 369.128 130.464 368.296 129.6C367.464 128.736 366.296 128.304 364.792 128.304C363.32 128.304 362.152 128.752 361.288 129.648C360.456 130.544 360.04 131.824 360.04 133.488V150H354.04ZM282.432 213C280.704 213 279.184 212.648 277.872 211.944C276.592 211.24 275.584 210.248 274.848 208.968C274.112 207.656 273.744 206.152 273.744 204.456V183.384H265.296V177.96H279.744V204.456C279.744 205.416 280.016 206.184 280.56 206.76C281.136 207.304 281.904 207.576 282.864 207.576H290.832V213H282.432ZM296.429 213V207.528H305.645V192.024H297.629V186.6H311.405V207.528H319.565V213H296.429ZM308.045 182.184C306.829 182.184 305.869 181.88 305.165 181.272C304.461 180.632 304.109 179.784 304.109 178.728C304.109 177.672 304.461 176.84 305.165 176.232C305.869 175.592 306.829 175.272 308.045 175.272C309.261 175.272 310.221 175.592 310.925 176.232C311.629 176.84 311.981 177.672 311.981 178.728C311.981 179.784 311.629 180.632 310.925 181.272C310.221 181.88 309.261 182.184 308.045 182.184ZM334.955 213.432C332.939 213.432 331.179 213.112 329.675 212.472C328.171 211.832 326.987 210.952 326.123 209.832C325.291 208.68 324.843 207.336 324.779 205.8H330.779C330.843 206.632 331.243 207.304 331.979 207.816C332.747 208.328 333.739 208.584 334.955 208.584H337.067C338.539 208.584 339.643 208.296 340.379 207.72C341.115 207.144 341.483 206.36 341.483 205.368C341.483 204.44 341.147 203.72 340.475 203.208C339.835 202.664 338.827 202.312 337.451 202.152L334.187 201.672C331.179 201.256 328.971 200.456 327.562 199.272C326.155 198.088 325.451 196.312 325.451 193.944C325.451 191.48 326.283 189.576 327.947 188.232C329.611 186.856 332.059 186.168 335.291 186.168H337.115C340.059 186.168 342.411 186.824 344.171 188.136C345.931 189.448 346.875 191.208 347.003 193.416H341.003C340.907 192.712 340.507 192.136 339.803 191.688C339.131 191.24 338.235 191.016 337.115 191.016H335.291C333.915 191.016 332.907 191.272 332.267 191.784C331.659 192.264 331.355 192.984 331.355 193.944C331.355 194.84 331.627 195.512 332.171 195.96C332.715 196.376 333.595 196.68 334.811 196.872L338.219 197.352C341.355 197.8 343.659 198.648 345.131 199.896C346.635 201.112 347.387 202.92 347.387 205.32C347.387 207.88 346.507 209.88 344.747 211.32C343.019 212.728 340.459 213.432 337.067 213.432H334.955ZM367.624 213C365.096 213 363.112 212.296 361.672 210.888C360.264 209.48 359.56 207.544 359.56 205.08V192.024H352.408V186.6H359.56V179.16H365.608V186.6H375.736V192.024H365.608V205.08C365.608 206.744 366.424 207.576 368.056 207.576H375.256V213H367.624ZM393.573 213.48C391.333 213.48 389.381 213.048 387.717 212.184C386.053 211.32 384.757 210.12 383.829 208.584C382.933 207.016 382.485 205.192 382.485 203.112V196.488C382.485 194.408 382.933 192.6 383.829 191.064C384.757 189.496 386.053 188.28 387.717 187.416C389.381 186.552 391.333 186.12 393.573 186.12C395.781 186.12 397.701 186.552 399.333 187.416C400.997 188.28 402.277 189.496 403.173 191.064C404.101 192.6 404.565 194.408 404.565 196.488V201.24H388.293V203.112C388.293 204.968 388.741 206.376 389.637 207.336C390.533 208.264 391.861 208.728 393.621 208.728C394.965 208.728 396.053 208.504 396.885 208.056C397.717 207.576 398.245 206.888 398.469 205.992H404.373C403.925 208.264 402.709 210.088 400.725 211.464C398.773 212.808 396.389 213.48 393.573 213.48ZM398.757 197.88V196.44C398.757 194.616 398.325 193.224 397.461 192.264C396.597 191.272 395.301 190.776 393.573 190.776C391.845 190.776 390.533 191.272 389.637 192.264C388.741 193.256 388.293 194.664 388.293 196.488V197.496L399.189 197.4L398.757 197.88ZM411.602 213V186.6H417.458V191.64H419.09L417.458 193.032C417.458 190.856 418.082 189.16 419.33 187.944C420.61 186.728 422.354 186.12 424.562 186.12C427.154 186.12 429.218 186.984 430.754 188.712C432.322 190.44 433.106 192.76 433.106 195.672V213H427.106V196.296C427.106 194.696 426.69 193.464 425.858 192.6C425.026 191.736 423.858 191.304 422.354 191.304C420.882 191.304 419.714 191.752 418.85 192.648C418.018 193.544 417.602 194.824 417.602 196.488V213H411.602ZM451.136 213.48C448.896 213.48 446.944 213.048 445.28 212.184C443.616 211.32 442.32 210.12 441.392 208.584C440.496 207.016 440.048 205.192 440.048 203.112V196.488C440.048 194.408 440.496 192.6 441.392 191.064C442.32 189.496 443.616 188.28 445.28 187.416C446.944 186.552 448.896 186.12 451.136 186.12C453.344 186.12 455.264 186.552 456.896 187.416C458.56 188.28 459.84 189.496 460.736 191.064C461.664 192.6 462.128 194.408 462.128 196.488V201.24H445.856V203.112C445.856 204.968 446.304 206.376 447.2 207.336C448.096 208.264 449.424 208.728 451.184 208.728C452.528 208.728 453.616 208.504 454.448 208.056C455.28 207.576 455.808 206.888 456.032 205.992H461.936C461.488 208.264 460.272 210.088 458.288 211.464C456.336 212.808 453.952 213.48 451.136 213.48ZM456.32 197.88V196.44C456.32 194.616 455.888 193.224 455.024 192.264C454.16 191.272 452.864 190.776 451.136 190.776C449.408 190.776 448.096 191.272 447.2 192.264C446.304 193.256 445.856 194.664 445.856 196.488V197.496L456.752 197.4L456.32 197.88ZM469.981 213V186.6H475.645V191.64H477.133L475.357 194.712C475.357 191.864 475.997 189.72 477.277 188.28C478.557 186.84 480.445 186.12 482.941 186.12C485.789 186.12 488.029 187 489.661 188.76C491.293 190.52 492.109 192.952 492.109 196.056V197.976H485.821V196.488C485.821 194.792 485.373 193.48 484.477 192.552C483.613 191.624 482.413 191.16 480.877 191.16C479.309 191.16 478.093 191.624 477.229 192.552C476.397 193.48 475.981 194.792 475.981 196.488V213H469.981Z" fill="white"/>
<path d="M140.6 84C95.5364 84 59 120.536 59 165.6C59 203.836 85.3296 235.83 120.826 244.684C120.445 243.582 120.2 242.304 120.2 240.72V226.773C116.888 226.773 111.34 226.773 109.946 226.773C104.363 226.773 99.3988 224.372 96.9916 219.912C94.3192 214.954 93.8568 207.372 87.2336 202.735C85.2684 201.191 86.7644 199.43 89.0288 199.668C93.2108 200.851 96.6788 203.721 99.9428 207.978C103.193 212.241 104.723 213.207 110.796 213.207C113.74 213.207 118.146 213.037 122.294 212.384C124.525 206.72 128.38 201.504 133.093 199.042C105.92 196.248 92.9524 182.729 92.9524 164.376C92.9524 156.474 96.3184 148.831 102.037 142.392C100.16 136 97.8008 122.964 102.758 118C114.984 118 122.376 125.929 124.151 128.071C130.244 125.983 136.935 124.8 143.966 124.8C151.011 124.8 157.729 125.983 163.836 128.084C165.59 125.956 172.988 118 185.242 118C190.22 122.971 187.833 136.061 185.936 142.439C191.62 148.865 194.966 156.488 194.966 164.376C194.966 182.716 182.019 196.227 154.887 199.036C162.353 202.932 167.8 213.88 167.8 222.128V240.72C167.8 241.427 167.644 241.937 167.562 242.542C199.359 231.397 222.2 201.205 222.2 165.6C222.2 120.536 185.664 84 140.6 84Z" fill="white"/>
</svg>
