<svg width="559" height="329" viewBox="0 0 559 329" fill="none" xmlns="http://www.w3.org/2000/svg">
<rect width="559" height="329" fill="#161B22"/>
<path d="M279.296 187.64C275.669 187.64 272.811 186.68 270.72 184.76C268.629 182.84 267.584 180.259 267.584 177.016C267.584 173.56 268.736 170.893 271.04 169.016C273.344 167.139 276.608 166.2 280.832 166.2H289.6V163.192C289.6 161.485 289.045 160.163 287.936 159.224C286.827 158.243 285.312 157.752 283.392 157.752C281.643 157.752 280.192 158.136 279.04 158.904C277.888 159.672 277.205 160.717 276.992 162.04H269.184C269.568 158.712 271.061 156.067 273.664 154.104C276.267 152.141 279.595 151.16 283.648 151.16C287.957 151.16 291.349 152.248 293.824 154.424C296.341 156.557 297.6 159.459 297.6 163.128V187H289.856V180.856H288.576L289.856 179.128C289.856 181.731 288.896 183.8 286.976 185.336C285.056 186.872 282.496 187.64 279.296 187.64ZM281.92 181.624C284.181 181.624 286.016 181.048 287.424 179.896C288.875 178.744 289.6 177.251 289.6 175.416V171.128H280.96C279.339 171.128 278.037 171.597 277.056 172.536C276.075 173.475 275.584 174.712 275.584 176.248C275.584 177.912 276.139 179.235 277.248 180.216C278.4 181.155 279.957 181.624 281.92 181.624ZM321.575 187.64C317.095 187.64 313.575 186.403 311.015 183.928C308.455 181.411 307.175 177.997 307.175 173.688V151.8H315.175V173.624C315.175 175.885 315.73 177.635 316.839 178.872C317.948 180.067 319.527 180.664 321.575 180.664C323.58 180.664 325.138 180.067 326.247 178.872C327.399 177.635 327.975 175.885 327.975 173.624V151.8H335.975V173.688C335.975 177.997 334.674 181.411 332.071 183.928C329.468 186.403 325.97 187.64 321.575 187.64ZM363.79 187C360.419 187 357.774 186.061 355.854 184.184C353.977 182.307 353.038 179.725 353.038 176.44V159.032H343.502V151.8H353.038V141.88H361.102V151.8H374.606V159.032H361.102V176.44C361.102 178.659 362.19 179.768 364.366 179.768H373.966V187H363.79ZM384.053 187V140.28H392.053V151.8L391.861 158.52H394.037L391.861 160.376C391.861 157.475 392.693 155.213 394.357 153.592C396.064 151.971 398.389 151.16 401.333 151.16C404.789 151.16 407.541 152.312 409.589 154.616C411.68 156.92 412.725 160.013 412.725 163.896V187H404.725V164.728C404.725 162.595 404.17 160.952 403.061 159.8C401.952 158.648 400.394 158.072 398.389 158.072C396.426 158.072 394.869 158.669 393.717 159.864C392.608 161.059 392.053 162.765 392.053 164.984V187H384.053Z" fill="white"/>
<path d="M140.6 84C95.5364 84 59 120.536 59 165.6C59 203.836 85.3296 235.83 120.826 244.684C120.445 243.582 120.2 242.304 120.2 240.72V226.773C116.888 226.773 111.34 226.773 109.946 226.773C104.363 226.773 99.3988 224.372 96.9916 219.912C94.3192 214.954 93.8568 207.372 87.2336 202.735C85.2684 201.191 86.7644 199.43 89.0288 199.668C93.2108 200.851 96.6788 203.721 99.9428 207.978C103.193 212.241 104.723 213.207 110.796 213.207C113.74 213.207 118.146 213.037 122.294 212.384C124.525 206.72 128.38 201.504 133.093 199.042C105.92 196.248 92.9524 182.729 92.9524 164.376C92.9524 156.474 96.3184 148.831 102.037 142.392C100.16 136 97.8008 122.964 102.758 118C114.984 118 122.376 125.929 124.151 128.071C130.244 125.983 136.935 124.8 143.966 124.8C151.011 124.8 157.729 125.983 163.836 128.084C165.59 125.956 172.988 118 185.242 118C190.22 122.971 187.833 136.061 185.936 142.439C191.62 148.865 194.966 156.488 194.966 164.376C194.966 182.716 182.019 196.227 154.887 199.036C162.353 202.932 167.8 213.88 167.8 222.128V240.72C167.8 241.427 167.644 241.937 167.562 242.542C199.359 231.397 222.2 201.205 222.2 165.6C222.2 120.536 185.664 84 140.6 84Z" fill="white"/>
</svg>
