<svg width="559" height="329" viewBox="0 0 559 329" fill="none" xmlns="http://www.w3.org/2000/svg">
<rect width="559" height="329" fill="#161B22"/>
<path d="M288.576 187C286.272 187 284.245 186.531 282.496 185.592C280.789 184.653 279.445 183.331 278.464 181.624C277.483 179.875 276.992 177.869 276.992 175.608V147.512H265.728V140.28H284.992V175.608C284.992 176.888 285.355 177.912 286.08 178.68C286.848 179.405 287.872 179.768 289.152 179.768H299.776V187H288.576ZM321.575 187.576C318.588 187.576 315.986 187.021 313.767 185.912C311.591 184.76 309.884 183.16 308.647 181.112C307.452 179.021 306.855 176.568 306.855 173.752V165.048C306.855 162.232 307.452 159.8 308.647 157.752C309.884 155.661 311.591 154.061 313.767 152.952C315.986 151.8 318.588 151.224 321.575 151.224C324.604 151.224 327.207 151.8 329.383 152.952C331.559 154.061 333.244 155.661 334.439 157.752C335.676 159.8 336.295 162.211 336.295 164.984V173.752C336.295 176.568 335.676 179.021 334.439 181.112C333.244 183.16 331.559 184.76 329.383 185.912C327.207 187.021 324.604 187.576 321.575 187.576ZM321.575 180.6C323.708 180.6 325.351 180.024 326.503 178.872C327.698 177.677 328.295 175.971 328.295 173.752V165.048C328.295 162.787 327.698 161.08 326.503 159.928C325.351 158.776 323.708 158.2 321.575 158.2C319.484 158.2 317.842 158.776 316.647 159.928C315.452 161.08 314.855 162.787 314.855 165.048V173.752C314.855 175.971 315.452 177.677 316.647 178.872C317.842 180.024 319.484 180.6 321.575 180.6ZM350.478 198.52V191.864H360.91C362.702 191.864 364.046 191.416 364.942 190.52C365.838 189.667 366.286 188.429 366.286 186.808V184.184L366.414 177.592H364.686L366.414 175.864C366.414 178.723 365.561 180.963 363.854 182.584C362.19 184.163 359.929 184.952 357.07 184.952C353.486 184.952 350.627 183.736 348.494 181.304C346.403 178.872 345.358 175.587 345.358 171.448V164.6C345.358 160.504 346.403 157.24 348.494 154.808C350.627 152.376 353.486 151.16 357.07 151.16C359.929 151.16 362.19 151.971 363.854 153.592C365.561 155.171 366.414 157.389 366.414 160.248L364.686 158.52H366.414L366.222 151.8H374.222V187C374.222 190.541 373.049 193.336 370.702 195.384C368.355 197.475 365.134 198.52 361.038 198.52H350.478ZM359.758 178.04C361.806 178.04 363.385 177.443 364.494 176.248C365.646 175.011 366.222 173.304 366.222 171.128V164.984C366.222 162.808 365.646 161.123 364.494 159.928C363.385 158.691 361.806 158.072 359.758 158.072C357.71 158.072 356.131 158.669 355.022 159.864C353.913 161.059 353.358 162.765 353.358 164.984V171.128C353.358 173.347 353.913 175.053 355.022 176.248C356.131 177.443 357.71 178.04 359.758 178.04ZM388.853 198.52V191.864H399.285C401.077 191.864 402.421 191.416 403.317 190.52C404.213 189.667 404.661 188.429 404.661 186.808V184.184L404.789 177.592H403.061L404.789 175.864C404.789 178.723 403.936 180.963 402.229 182.584C400.565 184.163 398.304 184.952 395.445 184.952C391.861 184.952 389.002 183.736 386.869 181.304C384.778 178.872 383.733 175.587 383.733 171.448V164.6C383.733 160.504 384.778 157.24 386.869 154.808C389.002 152.376 391.861 151.16 395.445 151.16C398.304 151.16 400.565 151.971 402.229 153.592C403.936 155.171 404.789 157.389 404.789 160.248L403.061 158.52H404.789L404.597 151.8H412.597V187C412.597 190.541 411.424 193.336 409.077 195.384C406.73 197.475 403.509 198.52 399.413 198.52H388.853ZM398.133 178.04C400.181 178.04 401.76 177.443 402.869 176.248C404.021 175.011 404.597 173.304 404.597 171.128V164.984C404.597 162.808 404.021 161.123 402.869 159.928C401.76 158.691 400.181 158.072 398.133 158.072C396.085 158.072 394.506 158.669 393.397 159.864C392.288 161.059 391.733 162.765 391.733 164.984V171.128C391.733 173.347 392.288 175.053 393.397 176.248C394.506 177.443 396.085 178.04 398.133 178.04ZM436.764 187.64C433.777 187.64 431.175 187.064 428.956 185.912C426.737 184.76 425.009 183.16 423.772 181.112C422.577 179.021 421.98 176.589 421.98 173.816V164.984C421.98 162.211 422.577 159.8 423.772 157.752C425.009 155.661 426.737 154.04 428.956 152.888C431.175 151.736 433.777 151.16 436.764 151.16C439.708 151.16 442.268 151.736 444.444 152.888C446.663 154.04 448.369 155.661 449.564 157.752C450.801 159.8 451.42 162.211 451.42 164.984V171.32H429.724V173.816C429.724 176.291 430.321 178.168 431.516 179.448C432.711 180.685 434.481 181.304 436.828 181.304C438.62 181.304 440.071 181.005 441.18 180.408C442.289 179.768 442.993 178.851 443.292 177.656H451.164C450.567 180.685 448.945 183.117 446.3 184.952C443.697 186.744 440.519 187.64 436.764 187.64ZM443.676 166.84V164.92C443.676 162.488 443.1 160.632 441.948 159.352C440.796 158.029 439.068 157.368 436.764 157.368C434.46 157.368 432.711 158.029 431.516 159.352C430.321 160.675 429.724 162.552 429.724 164.984V166.328L444.252 166.2L443.676 166.84ZM461.891 187V151.8H469.443V158.52H471.427L469.059 162.616C469.059 158.819 469.912 155.96 471.619 154.04C473.326 152.12 475.843 151.16 479.171 151.16C482.968 151.16 485.955 152.333 488.131 154.68C490.307 157.027 491.395 160.269 491.395 164.408V166.968H483.011V164.984C483.011 162.723 482.414 160.973 481.219 159.736C480.067 158.499 478.467 157.88 476.419 157.88C474.328 157.88 472.707 158.499 471.555 159.736C470.446 160.973 469.891 162.723 469.891 164.984V187H461.891Z" fill="white"/>
<path d="M140.6 84C95.5364 84 59 120.536 59 165.6C59 203.836 85.3296 235.83 120.826 244.684C120.445 243.582 120.2 242.304 120.2 240.72V226.773C116.888 226.773 111.34 226.773 109.946 226.773C104.363 226.773 99.3988 224.372 96.9916 219.912C94.3192 214.954 93.8568 207.372 87.2336 202.735C85.2684 201.191 86.7644 199.43 89.0288 199.668C93.2108 200.851 96.6788 203.721 99.9428 207.978C103.193 212.241 104.723 213.207 110.796 213.207C113.74 213.207 118.146 213.037 122.294 212.384C124.525 206.72 128.38 201.504 133.093 199.042C105.92 196.248 92.9524 182.729 92.9524 164.376C92.9524 156.474 96.3184 148.831 102.037 142.392C100.16 136 97.8008 122.964 102.758 118C114.984 118 122.376 125.929 124.151 128.071C130.244 125.983 136.935 124.8 143.966 124.8C151.011 124.8 157.729 125.983 163.836 128.084C165.59 125.956 172.988 118 185.242 118C190.22 122.971 187.833 136.061 185.936 142.439C191.62 148.865 194.966 156.488 194.966 164.376C194.966 182.716 182.019 196.227 154.887 199.036C162.353 202.932 167.8 213.88 167.8 222.128V240.72C167.8 241.427 167.644 241.937 167.562 242.542C199.359 231.397 222.2 201.205 222.2 165.6C222.2 120.536 185.664 84 140.6 84Z" fill="white"/>
</svg>
