<svg width="559" height="329" viewBox="0 0 559 329" fill="none" xmlns="http://www.w3.org/2000/svg">
<rect width="559" height="329" fill="#161B22"/>
<path d="M268.235 193.9V153.75H274.945V159.525H276.485L274.945 161.12C274.945 158.663 275.678 156.738 277.145 155.345C278.612 153.915 280.592 153.2 283.085 153.2C286.128 153.2 288.567 154.245 290.4 156.335C292.233 158.425 293.15 161.23 293.15 164.75V172.945C293.15 175.292 292.728 177.345 291.885 179.105C291.078 180.828 289.923 182.167 288.42 183.12C286.917 184.073 285.138 184.55 283.085 184.55C280.592 184.55 278.612 183.853 277.145 182.46C275.678 181.03 274.945 179.087 274.945 176.63L276.485 178.225H274.89L275.11 185.43V193.9H268.235ZM280.665 178.61C282.425 178.61 283.8 178.097 284.79 177.07C285.78 176.043 286.275 174.577 286.275 172.67V165.08C286.275 163.173 285.78 161.707 284.79 160.68C283.8 159.653 282.425 159.14 280.665 159.14C278.942 159.14 277.585 159.672 276.595 160.735C275.605 161.762 275.11 163.21 275.11 165.08V172.67C275.11 174.54 275.605 176.007 276.595 177.07C277.585 178.097 278.942 178.61 280.665 178.61ZM310.124 184.55C307.007 184.55 304.55 183.725 302.754 182.075C300.957 180.425 300.059 178.207 300.059 175.42C300.059 172.45 301.049 170.158 303.029 168.545C305.009 166.932 307.814 166.125 311.444 166.125H318.979V163.54C318.979 162.073 318.502 160.937 317.549 160.13C316.595 159.287 315.294 158.865 313.644 158.865C312.14 158.865 310.894 159.195 309.904 159.855C308.914 160.515 308.327 161.413 308.144 162.55H301.434C301.764 159.69 303.047 157.417 305.284 155.73C307.52 154.043 310.38 153.2 313.864 153.2C317.567 153.2 320.482 154.135 322.609 156.005C324.772 157.838 325.854 160.332 325.854 163.485V184H319.199V178.72H318.099L319.199 177.235C319.199 179.472 318.374 181.25 316.724 182.57C315.074 183.89 312.874 184.55 310.124 184.55ZM312.379 179.38C314.322 179.38 315.899 178.885 317.109 177.895C318.355 176.905 318.979 175.622 318.979 174.045V170.36H311.554C310.16 170.36 309.042 170.763 308.199 171.57C307.355 172.377 306.934 173.44 306.934 174.76C306.934 176.19 307.41 177.327 308.364 178.17C309.354 178.977 310.692 179.38 312.379 179.38ZM339.087 193.9L343.322 182.35L332.047 153.75H339.582L345.192 169.205C345.485 170.048 345.779 171.075 346.072 172.285C346.365 173.458 346.585 174.43 346.732 175.2C346.915 174.43 347.154 173.458 347.447 172.285C347.74 171.075 348.034 170.048 348.327 169.205L353.607 153.75H360.867L346.292 193.9H339.087ZM365.796 184V153.75H371.406V157.82H372.561L371.626 158.81C371.626 157.123 372.102 155.767 373.056 154.74C374.009 153.713 375.237 153.2 376.741 153.2C378.354 153.2 379.601 153.86 380.481 155.18C381.397 156.5 381.856 158.278 381.856 160.515L380.646 157.82H382.516L381.801 158.81C381.801 157.123 382.277 155.767 383.231 154.74C384.184 153.713 385.449 153.2 387.026 153.2C388.896 153.2 390.381 153.897 391.481 155.29C392.581 156.683 393.131 158.572 393.131 160.955V184H387.081V161.23C387.081 160.24 386.861 159.47 386.421 158.92C385.981 158.333 385.339 158.04 384.496 158.04C383.689 158.04 383.047 158.315 382.571 158.865C382.131 159.415 381.911 160.203 381.911 161.23V184H376.961V161.23C376.961 160.203 376.741 159.415 376.301 158.865C375.861 158.315 375.219 158.04 374.376 158.04C373.532 158.04 372.891 158.315 372.451 158.865C372.047 159.415 371.846 160.203 371.846 161.23V184H365.796ZM412.469 184.55C409.902 184.55 407.666 184.055 405.759 183.065C403.852 182.075 402.367 180.7 401.304 178.94C400.277 177.143 399.764 175.053 399.764 172.67V165.08C399.764 162.697 400.277 160.625 401.304 158.865C402.367 157.068 403.852 155.675 405.759 154.685C407.666 153.695 409.902 153.2 412.469 153.2C414.999 153.2 417.199 153.695 419.069 154.685C420.976 155.675 422.442 157.068 423.469 158.865C424.532 160.625 425.064 162.697 425.064 165.08V170.525H406.419V172.67C406.419 174.797 406.932 176.41 407.959 177.51C408.986 178.573 410.507 179.105 412.524 179.105C414.064 179.105 415.311 178.848 416.264 178.335C417.217 177.785 417.822 176.997 418.079 175.97H424.844C424.331 178.573 422.937 180.663 420.664 182.24C418.427 183.78 415.696 184.55 412.469 184.55ZM418.409 166.675V165.025C418.409 162.935 417.914 161.34 416.924 160.24C415.934 159.103 414.449 158.535 412.469 158.535C410.489 158.535 408.986 159.103 407.959 160.24C406.932 161.377 406.419 162.99 406.419 165.08V166.235L418.904 166.125L418.409 166.675ZM433.128 184V153.75H439.838V159.525H441.708L439.838 161.12C439.838 158.627 440.553 156.683 441.983 155.29C443.449 153.897 445.448 153.2 447.978 153.2C450.948 153.2 453.313 154.19 455.073 156.17C456.869 158.15 457.768 160.808 457.768 164.145V184H450.893V164.86C450.893 163.027 450.416 161.615 449.463 160.625C448.509 159.635 447.171 159.14 445.448 159.14C443.761 159.14 442.423 159.653 441.433 160.68C440.479 161.707 440.003 163.173 440.003 165.08V184H433.128ZM481.671 184C478.774 184 476.501 183.193 474.851 181.58C473.238 179.967 472.431 177.748 472.431 174.925V159.965H464.236V153.75H472.431V145.225H479.361V153.75H490.966V159.965H479.361V174.925C479.361 176.832 480.296 177.785 482.166 177.785H490.416V184H481.671Z" fill="white"/>
<path d="M140.6 84C95.5364 84 59 120.536 59 165.6C59 203.836 85.3296 235.83 120.826 244.684C120.445 243.582 120.2 242.304 120.2 240.72V226.773C116.888 226.773 111.34 226.773 109.946 226.773C104.363 226.773 99.3988 224.372 96.9916 219.912C94.3192 214.954 93.8568 207.372 87.2336 202.735C85.2684 201.191 86.7644 199.43 89.0288 199.668C93.2108 200.851 96.6788 203.721 99.9428 207.978C103.193 212.241 104.723 213.207 110.796 213.207C113.74 213.207 118.146 213.037 122.294 212.384C124.525 206.72 128.38 201.504 133.093 199.042C105.92 196.248 92.9524 182.729 92.9524 164.376C92.9524 156.474 96.3184 148.831 102.037 142.392C100.16 136 97.8008 122.964 102.758 118C114.984 118 122.376 125.929 124.151 128.071C130.244 125.983 136.935 124.8 143.966 124.8C151.011 124.8 157.729 125.983 163.836 128.084C165.59 125.956 172.988 118 185.242 118C190.22 122.971 187.833 136.061 185.936 142.439C191.62 148.865 194.966 156.488 194.966 164.376C194.966 182.716 182.019 196.227 154.887 199.036C162.353 202.932 167.8 213.88 167.8 222.128V240.72C167.8 241.427 167.644 241.937 167.562 242.542C199.359 231.397 222.2 201.205 222.2 165.6C222.2 120.536 185.664 84 140.6 84Z" fill="white"/>
</svg>
